<!DOCTYPE svg PUBLIC "-//W3C//DTD SVG 1.1//EN" "http://www.w3.org/Graphics/SVG/1.1/DTD/svg11.dtd">
<!-- Uploaded to: SVG Repo, www.svgrepo.com, Transformed by: SVG Repo Mixer Tools -->
<svg xmlns="http://www.w3.org/2000/svg" xmlns:xlink="http://www.w3.org/1999/xlink" version="1.1" id="hailstorm" viewBox="0 0 220.4353 208.7773" enable-background="new 0 0 220.4353 208.7773" xml:space="preserve" width="800px" height="800px" fill="#000000">
<g id="SVGRepo_bgCarrier" stroke-width="0"/>
<g id="SVGRepo_tracerCarrier" stroke-linecap="round" stroke-linejoin="round"/>
<g id="SVGRepo_iconCarrier"> <g> <ellipse fill="#1C71DA" cx="71.414" cy="150.8867" rx="3.9717" ry="3.8711"/> <path fill="#1C71DA" d="M115.6147,83.7344c-11.0273,0-20,8.9727-20,20s8.9727,20,20,20s20-8.9727,20-20 S126.6421,83.7344,115.6147,83.7344z"/> <path fill="#1C71DA" d="M114.0522,186.4297c-1.8613,0-3.7344,0.7188-5.166,2.1484c-1.375,1.375-2.1406,3.1953-2.1523,5.1211 c-0.0117,1.9062,0.7168,3.6914,2.0508,5.0273s3.1387,2.1875,5.0273,2.0508c1.9258-0.0117,3.7441-0.7773,5.1191-2.1523 s2.1406-3.1953,2.1523-5.1211c0.0117-1.9062-0.7168-3.6914-2.0508-5.0273C117.6655,187.1094,115.8647,186.4297,114.0522,186.4297z"/> <path fill="#1C71DA" d="M117.4624,20.1992c2.8242-2.8281,2.8672-7.3789,0.0996-10.1484C116.2378,8.7266,114.4721,8,112.5835,8 c-0.0156,0-0.0312,0-0.0469,0c-1.9258,0.0117-3.7441,0.7773-5.1191,2.1523s-2.1406,3.1914-2.1523,5.1172 c-0.0117,1.9062,0.7168,3.6914,2.0508,5.0273C110.0893,23.0703,114.6421,23.0234,117.4624,20.1992z"/> <path fill="#1C71DA" d="M24.1479,98.4766c-1.8125,0-3.6113,0.6797-4.9785,2.0469c-2.7695,2.7695-2.7246,7.3242,0.0996,10.1484 c2.8262,2.8242,7.375,2.875,10.1465,0.1016c1.334-1.3359,2.0625-3.1211,2.0508-5.0273c-0.0117-1.9258-0.7773-3.7461-2.1523-5.1211 C27.8823,99.1953,26.0093,98.4766,24.1479,98.4766z"/> <ellipse fill="#1C71DA" cx="70.2475" cy="61.3477" rx="3.8711" ry="3.9727"/> <ellipse fill="#1C71DA" cx="162.4306" cy="60.4688" rx="3.9717" ry="3.8711"/> <ellipse fill="#1C71DA" cx="160.4272" cy="150.0537" rx="3.8711" ry="3.9707"/> <path fill="#1C71DA" d="M200.1382,101.1211c-2.7695,2.7695-2.7227,7.3203,0.1016,10.1484c1.375,1.375,3.1914,2.1367,5.1172,2.1484 c0.0156,0,0.0312,0,0.0449,0c1.8906,0,3.6582-0.7266,4.9824-2.0508c1.334-1.3359,2.0625-3.1211,2.0508-5.0273 c-0.0117-1.9258-0.7754-3.7422-2.1504-5.1172C207.4604,98.4023,202.9097,98.3516,200.1382,101.1211z"/> <path fill="#8ac6ff" d="M115.6147,75.7344c-15.4395,0-28,12.5625-28,28s12.5605,28,28,28s28-12.5625,28-28 S131.0542,75.7344,115.6147,75.7344z M115.6147,123.7344c-11.0273,0-20-8.9727-20-20s8.9727-20,20-20s20,8.9727,20,20 S126.6421,123.7344,115.6147,123.7344z"/> <path fill="#8ac6ff" d="M103.23,182.9219c-2.873,2.8711-4.4707,6.6797-4.4961,10.7266c-0.0254,4.0625,1.5352,7.875,4.3945,10.7344 c2.8359,2.8359,6.6074,4.3945,10.6328,4.3945c0.0352,0,0.0684,0,0.1016,0c4.0449-0.0273,7.8535-1.625,10.7246-4.4961 c2.873-2.8711,4.4707-6.6797,4.4961-10.7266c0.0254-4.0625-1.5352-7.875-4.3945-10.7344 C118.8042,176.9375,109.1753,176.9688,103.23,182.9219z M118.9311,198.625c-1.375,1.375-3.1934,2.1406-5.1191,2.1523 c-1.8887,0.1367-3.6934-0.7148-5.0273-2.0508s-2.0625-3.1211-2.0508-5.0273c0.0117-1.9258,0.7773-3.7461,2.1523-5.1211 c1.4316-1.4297,3.3047-2.1484,5.166-2.1484c1.8125,0,3.6133,0.6797,4.9805,2.0469c1.334,1.3359,2.0625,3.1211,2.0508,5.0273 C121.0718,195.4297,120.3061,197.25,118.9311,198.625z"/> <path fill="#8ac6ff" d="M24.2475,90.4727c-0.0352,0-0.0684,0-0.1016,0c-4.0254,0-7.7969,1.5586-10.6328,4.3945 c-2.8594,2.8594-4.4199,6.6719-4.3945,10.7344c0.0254,4.0469,1.6211,7.8555,4.4941,10.7266 c2.9922,2.9922,6.9141,4.4883,10.8242,4.4883c3.8613,0,7.709-1.4609,10.6348-4.3867c2.8594-2.8594,4.4199-6.6719,4.3945-10.7344 c-0.0254-4.0469-1.623-7.8555-4.4961-10.7266S28.2905,90.5,24.2475,90.4727z M29.4155,110.7734 c-2.7715,2.7734-7.3203,2.7227-10.1465-0.1016c-2.8242-2.8242-2.8691-7.3789-0.0996-10.1484 c1.3672-1.3672,3.166-2.0469,4.9785-2.0469c1.8613,0,3.7344,0.7188,5.166,2.1484c1.375,1.375,2.1406,3.1953,2.1523,5.1211 C31.478,107.6523,30.7495,109.4375,29.4155,110.7734z"/> <path fill="#8ac6ff" d="M112.2983,30.3438c3.9102,0,7.832-1.5,10.8203-4.4883h0.002c5.9414-5.9492,5.9844-15.5742,0.0977-21.4609 C120.3589,1.5352,116.4194,0.1211,112.4839,0c-4.043,0.0273-7.8516,1.625-10.7227,4.4961 c-2.873,2.8711-4.4707,6.6797-4.4961,10.7227c-0.0254,4.0625,1.5352,7.875,4.3945,10.7344 C104.5874,28.8828,108.437,30.3438,112.2983,30.3438z M107.4175,10.1523c1.375-1.375,3.1934-2.1406,5.1191-2.1523 c0.0156,0,0.0312,0,0.0469,0c1.8887,0,3.6543,0.7266,4.9785,2.0508c2.7676,2.7695,2.7246,7.3203-0.0996,10.1484 c-2.8203,2.8242-7.373,2.8711-10.1465,0.0977c-1.334-1.3359-2.0625-3.1211-2.0508-5.0273 C105.2768,13.3438,106.0425,11.5273,107.4175,10.1523z"/> <path fill="#8ac6ff" d="M215.9409,95.5664c-5.9473-5.9492-15.5742-5.9922-21.459-0.1016 c-5.8887,5.8867-5.8418,15.5156,0.1016,21.4609c2.9883,2.9883,6.9102,4.4844,10.8184,4.4844c3.8613,0,7.7129-1.4609,10.6387-4.3867 c2.8594-2.8594,4.4199-6.6719,4.3945-10.7344C220.4097,102.2461,218.8139,98.4375,215.9409,95.5664z M210.3843,111.3672 c-1.3242,1.3242-3.0918,2.0508-4.9824,2.0508c-0.0137,0-0.0293,0-0.0449,0c-1.9258-0.0117-3.7422-0.7734-5.1172-2.1484 c-2.8242-2.8281-2.8711-7.3789-0.1016-10.1484c2.7715-2.7695,7.3223-2.7188,10.1465,0.1016 c1.375,1.375,2.1387,3.1914,2.1504,5.1172C212.4468,108.2461,211.7182,110.0312,210.3843,111.3672z"/> <path fill="#8ac6ff" d="M70.2475,73.3203c6.5449,0,11.8711-5.3711,11.8711-11.9727S76.7925,49.375,70.2475,49.375 s-11.8711,5.3711-11.8711,11.9727S63.7026,73.3203,70.2475,73.3203z M70.2475,57.375c2.1348,0,3.8711,1.7812,3.8711,3.9727 s-1.7363,3.9727-3.8711,3.9727s-3.8711-1.7812-3.8711-3.9727S68.1128,57.375,70.2475,57.375z"/> <path fill="#8ac6ff" d="M71.4136,139.0156c-6.6016,0-11.9707,5.3242-11.9707,11.8711s5.3691,11.8711,11.9707,11.8711 s11.9727-5.3242,11.9727-11.8711S78.0151,139.0156,71.4136,139.0156z M71.4136,154.7578c-2.1895,0-3.9707-1.7383-3.9707-3.8711 s1.7812-3.8711,3.9707-3.8711c2.1914,0,3.9727,1.7383,3.9727,3.8711S73.605,154.7578,71.4136,154.7578z"/> <path fill="#8ac6ff" d="M162.4311,48.5977c-6.6016,0-11.9727,5.3242-11.9727,11.8711s5.3711,11.8711,11.9727,11.8711 s11.9707-5.3242,11.9707-11.8711S169.0327,48.5977,162.4311,48.5977z M162.4311,64.3398c-2.1914,0-3.9727-1.7383-3.9727-3.8711 s1.7812-3.8711,3.9727-3.8711c2.1895,0,3.9707,1.7383,3.9707,3.8711S164.6206,64.3398,162.4311,64.3398z"/> <path fill="#8ac6ff" d="M160.4272,138.082c-6.5449,0-11.8711,5.3711-11.8711,11.9727c0,6.5977,5.3262,11.9688,11.8711,11.9688 s11.8711-5.3711,11.8711-11.9688C172.2983,143.4531,166.9722,138.082,160.4272,138.082z M160.4272,154.0234 c-2.1348,0-3.8711-1.7812-3.8711-3.9688c0-2.1914,1.7363-3.9727,3.8711-3.9727s3.8711,1.7812,3.8711,3.9727 C164.2983,152.2422,162.562,154.0234,160.4272,154.0234z"/> </g> <path fill="#FF5D5D" d="M180.0001,22.566c-1.0239,0-2.0474-0.3906-2.8286-1.1719c-1.562-1.5615-1.562-4.0947,0-5.6563 l14.1421-14.1416c1.5635-1.5625,4.0957-1.5615,5.6572,0c1.562,1.5615,1.562,4.0947,0,5.6562l-14.1421,14.1416 C182.0475,22.1754,181.0236,22.566,180.0001,22.566z"/> <path fill="#FF5D5D" d="M194.1422,22.567c-1.0239,0-2.0474-0.3906-2.8286-1.1719L177.1715,7.2526 c-1.562-1.5615-1.562-4.0947,0-5.6562c1.5635-1.5625,4.0957-1.5615,5.6572,0l14.1421,14.1426c1.562,1.5615,1.562,4.0947,0,5.6563 C196.1896,22.1764,195.1656,22.567,194.1422,22.567z"/> <path fill="#00D40B" d="M178.0001,198.566c-7.7197,0-14-6.2803-14-14s6.2803-14,14-14s14,6.2803,14,14 S185.7198,198.566,178.0001,198.566z M178.0001,178.566c-3.3086,0-6,2.6914-6,6s2.6914,6,6,6s6-2.6914,6-6 S181.3087,178.566,178.0001,178.566z"/> <path fill="#FFC504" d="M15.3136,161.194L15.3136,161.194c-1.061,0-2.0786-0.4219-2.8286-1.1719L1.1715,148.7076 c-1.562-1.5615-1.562-4.0947,0-5.6562l11.3135-11.3135c1.5625-1.5625,4.0952-1.5625,5.6567,0l11.314,11.3135 c0.7505,0.75,1.1719,1.7676,1.1719,2.8281s-0.4214,2.0781-1.1714,2.8281l-11.314,11.3145 C17.3922,160.7721,16.3746,161.194,15.3136,161.194z M9.6569,145.8795l5.6567,5.6572l5.6572-5.6572l-5.6572-5.6562L9.6569,145.8795z "/> </g>
</svg>