<!DOCTYPE svg PUBLIC "-//W3C//DTD SVG 1.1//EN" "http://www.w3.org/Graphics/SVG/1.1/DTD/svg11.dtd">
<!-- Uploaded to: SVG Repo, www.svgrepo.com, Transformed by: SVG Repo Mixer Tools -->
<svg xmlns="http://www.w3.org/2000/svg" xmlns:xlink="http://www.w3.org/1999/xlink" version="1.1" id="moonshine" viewBox="0 0 228 231.7812" enable-background="new 0 0 228 231.7812" xml:space="preserve" width="800px" height="800px" fill="#000000">
<g id="SVGRepo_bgCarrier" stroke-width="0"/>
<g id="SVGRepo_tracerCarrier" stroke-linecap="round" stroke-linejoin="round"/>
<g id="SVGRepo_iconCarrier"> <g> <path fill="#1C71DA" d="M166.4531,70.9453c-4.7188-5.0645-10.0508-9.3379-15.918-12.7676 c5.8555,26.7988-2.7383,55.0547-23.1172,74.0586c-20.375,19.002-49.1562,25.6035-75.4844,17.8945 c3.0117,6.0898,6.9023,11.707,11.625,16.7676c12.8125,13.7441,30.2109,21.6738,48.9922,22.3281 c18.7734,0.6914,36.6914-6.041,50.4336-18.8555s21.6719-30.2148,22.3281-48.9941 C185.9648,102.5996,179.2695,84.6875,166.4531,70.9453z"/> <path fill="#D0E8FF" d="M172.3047,65.4883c-7.5195-8.0645-16.4336-14.3301-26.4961-18.625 c-1.457-0.6191-3.1406-0.3262-4.2969,0.7539c-1.1602,1.0801-1.5703,2.7402-1.0547,4.2363 c9.1172,26.2988,1.8555,55.5547-18.4922,74.5312c-20.3555,18.9785-50.0469,24.1816-75.6406,13.25 c-1.4453-0.6172-3.1406-0.3262-4.2969,0.7539c-1.1602,1.0801-1.5703,2.7402-1.0547,4.2363 c3.5859,10.3398,9.2148,19.6699,16.7344,27.7305c14.2695,15.3047,33.6484,24.1367,54.5625,24.8672 c0.9375,0.0332,1.8711,0.0488,2.8047,0.0488c19.8867,0,38.7461-7.416,53.3633-21.0488 c15.3086-14.2734,24.1367-33.6504,24.8672-54.5664C194.0352,100.7422,186.5781,80.7949,172.3047,65.4883z M162.9844,170.3711 c-13.7422,12.8145-31.6602,19.5469-50.4336,18.8555c-18.7812-0.6543-36.1797-8.584-48.9922-22.3281 c-4.7227-5.0605-8.6133-10.6777-11.625-16.7676c26.3281,7.709,55.1094,1.1074,75.4844-17.8945 c20.3789-19.0039,28.9727-47.2598,23.1172-74.0586c5.8672,3.4297,11.1992,7.7031,15.918,12.7676 c12.8164,13.7422,19.5117,31.6543,18.8594,50.4316C184.6562,140.1562,176.7266,157.5566,162.9844,170.3711z"/> <path fill="#D0E8FF" d="M186.125,183.6973c-1.5625-1.5625-4.0938-1.5625-5.6562,0s-1.5625,4.0938,0,5.6562l8.4844,8.4844 c0.7812,0.7812,1.8047,1.1719,2.8281,1.1719s2.0469-0.3906,2.8281-1.1719c1.5625-1.5625,1.5625-4.0938,0-5.6562L186.125,183.6973z"/> <path fill="#D0E8FF" d="M188.9531,33.9434l-8.4844,8.4863c-1.5625,1.5625-1.5625,4.0957,0,5.6562 c0.7812,0.7812,1.8047,1.1719,2.8281,1.1719s2.0469-0.3906,2.8281-1.1719l8.4844-8.4863c1.5625-1.5625,1.5625-4.0957,0-5.6562 C193.0469,32.3809,190.5156,32.3809,188.9531,33.9434z"/> <path fill="#D0E8FF" d="M114,211.7812c-2.2109,0-4,1.791-4,4v12c0,2.209,1.7891,4,4,4s4-1.791,4-4v-12 C118,213.5723,116.2109,211.7812,114,211.7812z"/> <path fill="#D0E8FF" d="M224,111.8906h-12c-2.2109,0-4,1.791-4,4s1.7891,4,4,4h12c2.2109,0,4-1.791,4-4 S226.2109,111.8906,224,111.8906z"/> <path fill="#D0E8FF" d="M41.875,48.0859c0.7812,0.7812,1.8047,1.1719,2.8281,1.1719s2.0468-0.3906,2.8281-1.1719 c1.5625-1.5605,1.5625-4.0938,0-5.6562l-8.4844-8.4863c-1.5625-1.5625-4.0938-1.5625-5.6562,0 c-1.5625,1.5605-1.5625,4.0938,0,5.6562L41.875,48.0859z"/> <path fill="#D0E8FF" d="M41.875,183.6973l-8.4844,8.4844c-1.5625,1.5625-1.5625,4.0938,0,5.6562 c0.7812,0.7812,1.8047,1.1719,2.8281,1.1719s2.0469-0.3906,2.8281-1.1719l8.4844-8.4844c1.5625-1.5625,1.5625-4.0938,0-5.6562 S43.4375,182.1348,41.875,183.6973z"/> <path fill="#D0E8FF" d="M114,20c2.2109,0,4-1.791,4-4V4c0-2.209-1.7891-4-4-4s-4,1.791-4,4v12C110,18.209,111.7891,20,114,20z"/> <path fill="#D0E8FF" d="M16,111.8906H4c-2.2109,0-4,1.791-4,4s1.7891,4,4,4h12c2.2109,0,4-1.791,4-4S18.2109,111.8906,16,111.8906z "/> </g> <path fill="#FF5D5D" d="M96.3854,58.8322c-1.0234,0-2.0469-0.3906-2.8281-1.1714c-1.5625-1.5625-1.5625-4.0952,0-5.6572 l14.1426-14.1421c1.5605-1.5615,4.0938-1.5615,5.6562,0c1.5625,1.5625,1.5625,4.0952,0,5.6572L99.2135,57.6608 C98.4333,58.4415,97.4088,58.8322,96.3854,58.8322z"/> <path fill="#FF5D5D" d="M110.528,58.8307c-1.0234,0-2.0479-0.3906-2.8281-1.1714L93.5573,43.5167 c-1.5625-1.5625-1.5625-4.0947,0-5.6572c1.5605-1.5615,4.0957-1.5615,5.6562,0l14.1426,14.1426 c1.5625,1.5625,1.5625,4.0947,0,5.6572C112.5758,58.4401,111.5514,58.8307,110.528,58.8307z"/> <path fill="#00D40B" d="M202.3854,170.8322c-7.7197,0-14-6.2803-14-14s6.2803-14,14-14s14,6.2803,14,14 S210.1051,170.8322,202.3854,170.8322z M202.3854,150.8322c-3.3086,0-6,2.6914-6,6s2.6914,6,6,6s6-2.6914,6-6 S205.694,150.8322,202.3854,150.8322z"/> <path fill="#FFC504" d="M83.6989,109.4576c-1.0234,0-2.0479-0.3906-2.8281-1.1714L69.5573,96.9728 c-1.5625-1.5625-1.5625-4.0947,0-5.6572l11.3135-11.3135c1.5605-1.5615,4.0957-1.5615,5.6562,0l11.3135,11.3135 c1.5625,1.5625,1.5625,4.0947,0,5.6572L86.527,108.2863C85.7467,109.067,84.7223,109.4576,83.6989,109.4576z M78.0426,94.1442 l5.6562,5.6567l5.6562-5.6567l-5.6562-5.6567L78.0426,94.1442z"/> </g>
</svg>