<!DOCTYPE svg PUBLIC "-//W3C//DTD SVG 1.1//EN" "http://www.w3.org/Graphics/SVG/1.1/DTD/svg11.dtd">
<!-- Uploaded to: SVG Repo, www.svgrepo.com, Transformed by: SVG Repo Mixer Tools -->
<svg xmlns="http://www.w3.org/2000/svg" xmlns:xlink="http://www.w3.org/1999/xlink" version="1.1" id="rainsnowcloud" viewBox="0 0 207.0128 215.3097" enable-background="new 0 0 207.0128 215.3097" xml:space="preserve" width="800px" height="800px" fill="#000000">
<g id="SVGRepo_bgCarrier" stroke-width="0"/>
<g id="SVGRepo_tracerCarrier" stroke-linecap="round" stroke-linejoin="round"/>
<g id="SVGRepo_iconCarrier"> <g> <path fill="#1C71DA" d="M162,71.3097c-0.6055,0-1.2031,0.0156-1.7988,0.0449c-1.1035,0.0801-2.1641-0.3398-2.957-1.0957 C156.4492,69.5031,156,68.4562,156,67.3605c0-26.5176-22.4297-48.0508-50-48.0508c-21.9004,0-41.0566,13.4531-47.6699,33.4746 c-0.5879,1.7793-2.3457,2.918-4.1895,2.7266c-1.3613-0.1328-2.7441-0.2012-4.1406-0.2012c-23.1582,0-42,18.8418-42,42 s18.8418,42,42,42c0.6152,0,1.2285-0.0117,1.8359-0.0391c0.25-0.0098,0.5098-0.002,0.7617,0.0391h110.7598 c0.1387-0.0234,0.2812-0.0391,0.4238-0.0449C181.8477,138.3331,196,123.4191,196,105.3097C196,86.5616,180.748,71.3097,162,71.3097 z"/> <path fill="#D0E8FF" d="M163.8574,63.3507c-2.1113-29.0391-27.2539-52.041-57.8574-52.041 c-24.2793,0-45.6719,14.3555-54.2051,36.0312c-0.5957-0.0215-1.1934-0.0312-1.7949-0.0312c-27.5703,0-50,22.4297-50,50 s22.4297,50,50,50c0.5234,0,1.0449-0.0078,1.5664-0.0234c0.1426,0.0156,0.2871,0.0234,0.4336,0.0234h112 c0.2891,0,0.5742-0.0332,0.8496-0.0957C186.8574,145.7413,204,127.4601,204,105.3097 C204,82.7726,186.1582,64.3253,163.8574,63.3507z M163.7812,139.2648c-0.1426,0.0059-0.2852,0.0215-0.4238,0.0449H52.5977 c-0.252-0.041-0.5117-0.0488-0.7617-0.0391c-0.6074,0.0273-1.2207,0.0391-1.8359,0.0391c-23.1582,0-42-18.8418-42-42 s18.8418-42,42-42c1.3965,0,2.7793,0.0684,4.1406,0.2012c1.8438,0.1914,3.6016-0.9473,4.1895-2.7266 C64.9434,32.7628,84.0996,19.3097,106,19.3097c27.5703,0,50,21.5332,50,48.0508c0,1.0957,0.4492,2.1426,1.2441,2.8984 c0.793,0.7559,1.8535,1.1758,2.957,1.0957c0.5957-0.0293,1.1934-0.0449,1.7988-0.0449c18.748,0,34,15.252,34,34 C196,123.4191,181.8477,138.3331,163.7812,139.2648z"/> <path fill="#D0E8FF" d="M170.8281,176.4816c-1.5625-1.5625-4.0938-1.5625-5.6562,0l-6.8281,6.8281h-3.0808 c-1.2083-3.3887-3.8743-6.0547-7.2629-7.2629v-3.0808l6.8281-6.8281c1.5625-1.5625,1.5625-4.0938,0-5.6562s-4.0938-1.5625-5.6562,0 L144,165.6534l-5.1719-5.1719c-1.5625-1.5625-4.0938-1.5625-5.6562,0s-1.5625,4.0938,0,5.6562L140,172.9659v3.0808 c-3.3887,1.2083-6.0547,3.8743-7.2629,7.2629h-3.0808l-6.8281-6.8281c-1.5625-1.5625-4.0938-1.5625-5.6562,0 s-1.5625,4.0938,0,5.6562l5.1719,5.1719l-5.1719,5.1719c-1.5625,1.5625-1.5625,4.0938,0,5.6562 c0.7812,0.7812,1.8047,1.1719,2.8281,1.1719s2.0469-0.3906,2.8281-1.1719l6.8281-6.8281h3.0811 c1.2083,3.3887,3.874,6.0544,7.2627,7.2627v3.0811l-6.8281,6.8281c-1.5625,1.5625-1.5625,4.0938,0,5.6562s4.0938,1.5625,5.6562,0 L144,208.9659l5.1719,5.1719c0.7812,0.7812,1.8047,1.1719,2.8281,1.1719s2.0469-0.3906,2.8281-1.1719 c1.5625-1.5625,1.5625-4.0938,0-5.6562L148,201.6534v-3.0808c3.3887-1.2083,6.0547-3.8743,7.2629-7.2629h3.0808l6.8281,6.8281 c0.7812,0.7812,1.8047,1.1719,2.8281,1.1719s2.0469-0.3906,2.8281-1.1719c1.5625-1.5625,1.5625-4.0938,0-5.6562l-5.1719-5.1719 l5.1719-5.1719C172.3906,180.5753,172.3906,178.0441,170.8281,176.4816z M144,191.3097c-2.2051,0-4-1.7949-4-4s1.7949-4,4-4 s4,1.7949,4,4S146.2051,191.3097,144,191.3097z"/> <path fill="#D0E8FF" d="M64.9414,169.5206c-1.918-1.1074-4.3613-0.4492-5.4648,1.4648l-20.8125,36.0488 c-1.1035,1.9141-0.4492,4.3594,1.4648,5.4648c0.6309,0.3633,1.3184,0.5352,1.9961,0.5352c1.3828,0,2.7266-0.7168,3.4688-2 l20.8125-36.0488C67.5098,173.0714,66.8555,170.6261,64.9414,169.5206z"/> <path fill="#D0E8FF" d="M88.9414,169.5206c-1.9219-1.1074-4.3594-0.4492-5.4648,1.4648l-20.8125,36.0488 c-1.1035,1.9141-0.4492,4.3594,1.4648,5.4648c0.6309,0.3633,1.3184,0.5352,1.9961,0.5352c1.3828,0,2.7266-0.7168,3.4688-2 l20.8125-36.0488C91.5098,173.0714,90.8555,170.6261,88.9414,169.5206z"/> </g> <path fill="#FF5D5D" d="M172.3854,22.1418c-1.0239,0-2.0474-0.3906-2.8286-1.1714c-1.562-1.5625-1.562-4.0947,0-5.6572 l14.1421-14.1421c1.5625-1.5615,4.0947-1.5615,5.6572,0c1.562,1.5625,1.562,4.0947,0,5.6572L175.214,20.9705 C174.4328,21.7512,173.4093,22.1418,172.3854,22.1418z"/> <path fill="#FF5D5D" d="M186.5275,22.1418c-1.0239,0-2.0474-0.3906-2.8286-1.1714L169.5568,6.8284 c-1.562-1.5625-1.562-4.0947,0-5.6572c1.5625-1.5615,4.0947-1.5615,5.6572,0l14.1421,14.1421c1.562,1.5625,1.562,4.0947,0,5.6572 C188.5748,21.7512,187.5514,22.1418,186.5275,22.1418z"/> <path fill="#00D40B" d="M14.3854,174.1418c-7.7197,0-14-6.2803-14-14s6.2803-14,14-14s14,6.2803,14,14 S22.1051,174.1418,14.3854,174.1418z M14.3854,154.1418c-3.3086,0-6,2.6914-6,6s2.6914,6,6,6s6-2.6914,6-6 S17.694,154.1418,14.3854,154.1418z"/> <path fill="#FFC504" d="M191.6989,172.7693L191.6989,172.7693c-1.061,0-2.0781-0.4214-2.8286-1.1719l-11.3135-11.314 c-1.562-1.562-1.562-4.0942,0-5.6567l11.3135-11.3135c1.5625-1.5615,4.0952-1.5615,5.6567,0l11.314,11.3135 c0.7505,0.7505,1.1719,1.7676,1.1719,2.8286s-0.4214,2.0781-1.1714,2.8286l-11.314,11.314 C193.777,172.3479,192.7599,172.7693,191.6989,172.7693z M186.0421,157.4553l5.6567,5.6572l5.6572-5.6572l-5.6572-5.6567 L186.0421,157.4553z"/> </g>
</svg>