<!DOCTYPE svg PUBLIC "-//W3C//DTD SVG 1.1//EN" "http://www.w3.org/Graphics/SVG/1.1/DTD/svg11.dtd">
<!-- Uploaded to: SVG Repo, www.svgrepo.com, Transformed by: SVG Repo Mixer Tools -->
<svg xmlns="http://www.w3.org/2000/svg" xmlns:xlink="http://www.w3.org/1999/xlink" version="1.1" id="snowingcloud" viewBox="0 0 232 198.1418" enable-background="new 0 0 232 198.1418" xml:space="preserve" width="800px" height="800px" fill="#000000">
<g id="SVGRepo_bgCarrier" stroke-width="0"/>
<g id="SVGRepo_tracerCarrier" stroke-linecap="round" stroke-linejoin="round"/>
<g id="SVGRepo_iconCarrier"> <g> <path fill="#1C71DA" d="M184.5723,79.4347c-0.6953,0-1.3848,0.0176-2.0703,0.0547c-1.0938,0.0762-2.1699-0.332-2.9668-1.0898 c-0.7988-0.7559-1.25-1.8066-1.25-2.9043c0-31.0078-25.8906-56.1855-57.7129-56.1855c-25.2695,0-47.3789,15.7207-55.0195,39.1211 c-0.582,1.7832-2.3125,2.9277-4.1953,2.7383c-1.5742-0.1543-3.1719-0.2344-4.7852-0.2344C29.7891,60.9347,8,83.0011,8,110.1222 s21.7891,49.1875,48.5723,49.1875c0.707,0,1.4141-0.0137,2.1152-0.0469c0.2812-0.0098,0.5547,0.0059,0.8184,0.0469H186.166 c0.1523-0.0273,0.3086-0.0449,0.4648-0.0527C207.5859,158.1652,224,140.6456,224,119.3722 C224,97.3507,206.3125,79.4347,184.5723,79.4347z M150.9434,107.5695c1.4961,1.627,1.3906,4.1562-0.2344,5.6523 c-0.7695,0.707-1.7402,1.0566-2.707,1.0566c-1.0801,0-2.1562-0.4336-2.9453-1.291l-5.9343-6.4497 c-0.3215,0.0833-0.6323,0.1978-0.9797,0.1978h-10.8796c-0.1392,0.3904-0.2878,0.7708-0.4653,1.1414l7.6868,7.6868 c0.1567,0.1567,0.2273,0.3569,0.3528,0.5312l9.282-0.3848c2.2246-0.1152,4.0703,1.625,4.1621,3.8301 c0.0918,2.207-1.623,4.0703-3.8301,4.1621l-6.875,0.2852l-0.2852,6.875c-0.0879,2.1504-1.8613,3.834-3.9941,3.834 c-0.0547,0-0.1113-0.002-0.168-0.0039c-2.207-0.0918-3.9219-1.9551-3.8301-4.1621l0.363-8.7568 c-0.2866-0.1687-0.5876-0.3076-0.8337-0.5537l-7.6868-7.6868c-0.3706,0.1775-0.751,0.3262-1.1414,0.4653v10.8796 c0,0.2217-0.0916,0.4131-0.1262,0.625l6.8352,6.2891c1.625,1.4961,1.7305,4.0254,0.2344,5.6523 c-0.7891,0.8574-1.8652,1.291-2.9453,1.291c-0.9668,0-1.9375-0.3496-2.707-1.0566l-5.0625-4.6582l-5.0625,4.6582 c-1.627,1.4941-4.1582,1.3906-5.6523-0.2344c-1.4961-1.627-1.3906-4.1562,0.2344-5.6523l6.4497-5.9343 c-0.0833-0.3215-0.1978-0.6323-0.1978-0.9797v-10.8799c-0.3904-0.1392-0.7708-0.2876-1.1414-0.4651l-7.6868,7.6868 c-0.1567,0.1567-0.3569,0.2273-0.5312,0.3528l0.3848,9.282c0.0918,2.207-1.623,4.0703-3.8301,4.1621 c-0.0566,0.002-0.1133,0.0039-0.168,0.0039c-2.1348,0-3.9062-1.6836-3.9941-3.834l-0.2852-6.875l-6.875-0.2852 c-2.207-0.0918-3.9219-1.9551-3.8301-4.1621c0.0898-2.2051,1.8496-3.9434,4.1621-3.8301l8.7568,0.363 c0.1687-0.2866,0.3076-0.5876,0.5537-0.8337l7.6868-7.6868c-0.1775-0.3706-0.3259-0.751-0.4651-1.1414H93.8574 c-0.2217,0-0.4131-0.0916-0.625-0.1262l-6.2891,6.8352c-0.7891,0.8574-1.8652,1.291-2.9453,1.291 c-0.9668,0-1.9375-0.3496-2.707-1.0566c-1.625-1.4961-1.7305-4.0254-0.2344-5.6523l4.6582-5.0625l-4.6582-5.0625 c-1.4961-1.627-1.3906-4.1562,0.2344-5.6523c1.6309-1.498,4.1602-1.3906,5.6523,0.2344l5.9343,6.4497 c0.3215-0.0833,0.6323-0.1978,0.9797-0.1978h10.8796c0.1392-0.3904,0.2878-0.7708,0.4653-1.1414l-7.6868-7.6868 c-0.1567-0.1567-0.2273-0.3569-0.3528-0.5312l-9.282,0.3848c-0.0566,0.002-0.1133,0.0039-0.168,0.0039 c-2.1348,0-3.9062-1.6836-3.9941-3.834c-0.0918-2.207,1.623-4.0703,3.8301-4.1621l6.875-0.2852l0.2852-6.875 c0.0898-2.2051,1.8867-3.9219,4.1621-3.8301c2.207,0.0918,3.9219,1.9551,3.8301,4.1621l-0.363,8.7568 c0.2866,0.1687,0.5876,0.3076,0.8337,0.5537l7.6868,7.6868c0.3706-0.1775,0.751-0.3262,1.1414-0.4653V80.5929 c0-0.2217,0.0916-0.4131,0.1262-0.625l-6.8352-6.2891c-1.625-1.4961-1.7305-4.0254-0.2344-5.6523 c1.4961-1.623,4.0234-1.7305,5.6523-0.2344l5.0625,4.6582l5.0625-4.6582c1.6309-1.4961,4.1543-1.3887,5.6523,0.2344 c1.4961,1.627,1.3906,4.1562-0.2344,5.6523l-6.4497,5.9343C119.8855,79.9347,120,80.2455,120,80.5929v10.8796 c0.3904,0.1392,0.7708,0.2878,1.1414,0.4653l7.6868-7.6868c0.1567-0.1567,0.3569-0.2273,0.5312-0.3528l-0.3848-9.282 c-0.0918-2.207,1.623-4.0703,3.8301-4.1621c2.2793-0.1328,4.0723,1.623,4.1621,3.8301l0.2852,6.875l6.875,0.2852 c2.207,0.0918,3.9219,1.9551,3.8301,4.1621c-0.0879,2.1504-1.8613,3.834-3.9941,3.834c-0.0547,0-0.1113-0.002-0.168-0.0039 l-8.7568-0.363c-0.1687,0.2866-0.3076,0.5876-0.5537,0.8337l-7.6868,7.6868c0.1775,0.3706,0.3262,0.751,0.4653,1.1414h10.8796 c0.2217,0,0.4131,0.0916,0.625,0.1262l6.2891-6.8352c1.4961-1.623,4.0215-1.7305,5.6523-0.2344 c1.625,1.4961,1.7305,4.0254,0.2344,5.6523l-4.6582,5.0625L150.9434,107.5695z"/> <path fill="#D0E8FF" d="M186.1602,71.462c-2.1094-33.5176-30.7207-60.1523-65.5879-60.1523 c-27.6641,0-52.0176,16.6191-61.5781,41.6758c-0.8066-0.0332-1.6152-0.0508-2.4219-0.0508C25.3789,52.9347,0,78.589,0,110.1222 s25.3789,57.1875,56.5723,57.1875c0.6035,0,1.207-0.0098,1.8086-0.0293c0.1562,0.0195,0.3164,0.0293,0.4766,0.0293h128 c0.3047,0,0.6055-0.0371,0.8945-0.1055c24.8691-1.666,44.248-22.5391,44.248-47.832C232,93.4757,211.5801,72.3116,186.1602,71.462z M186.6309,159.257c-0.1562,0.0078-0.3125,0.0254-0.4648,0.0527H59.5059c-0.2637-0.041-0.5371-0.0566-0.8184-0.0469 c-0.7012,0.0332-1.4082,0.0469-2.1152,0.0469C29.7891,159.3097,8,137.2433,8,110.1222s21.7891-49.1875,48.5723-49.1875 c1.6133,0,3.2109,0.0801,4.7852,0.2344c1.8828,0.1895,3.6133-0.9551,4.1953-2.7383c7.6406-23.4004,29.75-39.1211,55.0195-39.1211 c31.8223,0,57.7129,25.1777,57.7129,56.1855c0,1.0977,0.4512,2.1484,1.25,2.9043c0.7969,0.7578,1.873,1.166,2.9668,1.0898 c0.6855-0.0371,1.375-0.0547,2.0703-0.0547c21.7402,0,39.4277,17.916,39.4277,39.9375 C224,140.6456,207.5859,158.1652,186.6309,159.257z"/> <path fill="#D0E8FF" d="M150.709,91.7921c-1.6309-1.4961-4.1562-1.3887-5.6523,0.2344l-6.2891,6.8352 c-0.2119-0.0347-0.4033-0.1262-0.625-0.1262h-10.8796c-0.1392-0.3904-0.2878-0.7708-0.4653-1.1414l7.6868-7.6868 c0.2461-0.2461,0.385-0.5471,0.5537-0.8337l8.7568,0.363c0.0566,0.002,0.1133,0.0039,0.168,0.0039 c2.1328,0,3.9062-1.6836,3.9941-3.834c0.0918-2.207-1.623-4.0703-3.8301-4.1621l-6.875-0.2852l-0.2852-6.875 c-0.0898-2.207-1.8828-3.9629-4.1621-3.8301c-2.207,0.0918-3.9219,1.9551-3.8301,4.1621l0.3848,9.282 c-0.1743,0.1255-0.3745,0.196-0.5312,0.3528l-7.6868,7.6868c-0.3706-0.1775-0.751-0.3262-1.1414-0.4653V80.5929 c0-0.3474-0.1145-0.6582-0.1978-0.9797l6.4497-5.9343c1.625-1.4961,1.7305-4.0254,0.2344-5.6523 c-1.498-1.623-4.0215-1.7305-5.6523-0.2344l-5.0625,4.6582l-5.0625-4.6582c-1.6289-1.4961-4.1562-1.3887-5.6523,0.2344 c-1.4961,1.627-1.3906,4.1562,0.2344,5.6523l6.8352,6.2891C112.0916,80.1798,112,80.3712,112,80.5929v10.8796 c-0.3904,0.1392-0.7708,0.2878-1.1414,0.4653l-7.6868-7.6868c-0.2461-0.2461-0.5471-0.385-0.8337-0.5537l0.363-8.7568 c0.0918-2.207-1.623-4.0703-3.8301-4.1621c-2.2754-0.0918-4.0723,1.625-4.1621,3.8301l-0.2852,6.875l-6.875,0.2852 c-2.207,0.0918-3.9219,1.9551-3.8301,4.1621c0.0879,2.1504,1.8594,3.834,3.9941,3.834c0.0547,0,0.1113-0.002,0.168-0.0039 l9.282-0.3848c0.1255,0.1743,0.196,0.3745,0.3528,0.5312l7.6868,7.6868c-0.1775,0.3706-0.3262,0.751-0.4653,1.1414H93.8574 c-0.3474,0-0.6582,0.1145-0.9797,0.1978l-5.9343-6.4497c-1.4922-1.625-4.0215-1.7324-5.6523-0.2344 c-1.625,1.4961-1.7305,4.0254-0.2344,5.6523l4.6582,5.0625l-4.6582,5.0625c-1.4961,1.627-1.3906,4.1562,0.2344,5.6523 c0.7695,0.707,1.7402,1.0566,2.707,1.0566c1.0801,0,2.1562-0.4336,2.9453-1.291l6.2891-6.8352 c0.2119,0.0347,0.4033,0.1262,0.625,0.1262h10.8799c0.1392,0.3904,0.2876,0.7708,0.4651,1.1414l-7.6868,7.6868 c-0.2461,0.2461-0.385,0.5471-0.5537,0.8337l-8.7568-0.363c-2.3125-0.1133-4.0723,1.625-4.1621,3.8301 c-0.0918,2.207,1.623,4.0703,3.8301,4.1621l6.875,0.2852l0.2852,6.875c0.0879,2.1504,1.8594,3.834,3.9941,3.834 c0.0547,0,0.1113-0.002,0.168-0.0039c2.207-0.0918,3.9219-1.9551,3.8301-4.1621l-0.3848-9.282 c0.1743-0.1255,0.3745-0.196,0.5312-0.3528l7.6868-7.6868c0.3706,0.1775,0.751,0.3259,1.1414,0.4651v10.8799 c0,0.3474,0.1145,0.6582,0.1978,0.9797l-6.4497,5.9343c-1.625,1.4961-1.7305,4.0254-0.2344,5.6523 c1.4941,1.625,4.0254,1.7285,5.6523,0.2344l5.0625-4.6582l5.0625,4.6582c0.7695,0.707,1.7402,1.0566,2.707,1.0566 c1.0801,0,2.1562-0.4336,2.9453-1.291c1.4961-1.627,1.3906-4.1562-0.2344-5.6523l-6.8352-6.2891 c0.0347-0.2119,0.1262-0.4033,0.1262-0.625v-10.8796c0.3904-0.1392,0.7708-0.2878,1.1414-0.4653l7.6868,7.6868 c0.2461,0.2461,0.5471,0.385,0.8337,0.5537l-0.363,8.7568c-0.0918,2.207,1.623,4.0703,3.8301,4.1621 c0.0566,0.002,0.1133,0.0039,0.168,0.0039c2.1328,0,3.9062-1.6836,3.9941-3.834l0.2852-6.875l6.875-0.2852 c2.207-0.0918,3.9219-1.9551,3.8301-4.1621c-0.0918-2.2051-1.9375-3.9453-4.1621-3.8301l-9.282,0.3848 c-0.1255-0.1743-0.196-0.3745-0.3528-0.5312l-7.6868-7.6868c0.1775-0.3706,0.3262-0.751,0.4653-1.1414h10.8796 c0.3474,0,0.6582-0.1145,0.9797-0.1978l5.9343,6.4497c0.7891,0.8574,1.8652,1.291,2.9453,1.291 c0.9668,0,1.9375-0.3496,2.707-1.0566c1.625-1.4961,1.7305-4.0254,0.2344-5.6523l-4.6582-5.0625l4.6582-5.0625 C152.4395,95.8175,152.334,93.2882,150.709,91.7921z M112,102.7355c0-2.2051,1.7949-4,4-4s4,1.7949,4,4s-1.7949,4-4,4 S112,104.9406,112,102.7355z"/> </g> <path fill="#FF5D5D" d="M180.3854,22.1418c-1.0239,0-2.0474-0.3906-2.8286-1.1714c-1.562-1.5625-1.562-4.0947,0-5.6572 l14.1421-14.1421c1.5625-1.5615,4.0947-1.5615,5.6572,0c1.562,1.5625,1.562,4.0947,0,5.6572L183.214,20.9705 C182.4328,21.7512,181.4093,22.1418,180.3854,22.1418z"/> <path fill="#FF5D5D" d="M194.5275,22.1418c-1.0239,0-2.0474-0.3906-2.8286-1.1714L177.5568,6.8284 c-1.562-1.5625-1.562-4.0947,0-5.6572c1.5625-1.5615,4.0947-1.5615,5.6572,0l14.1421,14.1421c1.562,1.5625,1.562,4.0947,0,5.6572 C196.5748,21.7512,195.5514,22.1418,194.5275,22.1418z"/> <path fill="#00D40B" d="M186.3854,198.1418c-7.7197,0-14-6.2803-14-14s6.2803-14,14-14s14,6.2803,14,14 S194.1051,198.1418,186.3854,198.1418z M186.3854,178.1418c-3.3086,0-6,2.6914-6,6s2.6914,6,6,6s6-2.6914,6-6 S189.694,178.1418,186.3854,178.1418z"/> <path fill="#FFC504" d="M27.6989,196.7693L27.6989,196.7693c-1.061,0-2.0781-0.4214-2.8286-1.1719l-11.3135-11.314 c-1.562-1.562-1.562-4.0942,0-5.6567l11.3135-11.3135c1.5625-1.5615,4.0952-1.5615,5.6567,0l11.314,11.3135 c0.7505,0.7505,1.1719,1.7676,1.1719,2.8286s-0.4214,2.0781-1.1714,2.8286l-11.314,11.314 C29.777,196.3479,28.7599,196.7693,27.6989,196.7693z M22.0421,181.4553l5.6567,5.6572l5.6572-5.6572l-5.6572-5.6567 L22.0421,181.4553z"/> </g>
</svg>