<!DOCTYPE svg PUBLIC "-//W3C//DTD SVG 1.1//EN" "http://www.w3.org/Graphics/SVG/1.1/DTD/svg11.dtd">
<!-- Uploaded to: SVG Repo, www.svgrepo.com, Transformed by: SVG Repo Mixer Tools -->
<svg xmlns="http://www.w3.org/2000/svg" xmlns:xlink="http://www.w3.org/1999/xlink" version="1.1" id="sunrise" viewBox="0 0 195.6146 208.1523" enable-background="new 0 0 195.6146 208.1523" xml:space="preserve" width="800px" height="800px" fill="#000000">
<g id="SVGRepo_bgCarrier" stroke-width="0"/>
<g id="SVGRepo_tracerCarrier" stroke-linecap="round" stroke-linejoin="round"/>
<g id="SVGRepo_iconCarrier"> <g> <path fill="#1C71DA" d="M111.6146,60c-26.2891,0-47.6797,21.3906-47.6797,47.6797c0,4.1914,0.5391,8.3242,1.6055,12.3203h92.1484 c1.0664-3.9961,1.6055-8.1289,1.6055-12.3203C159.2943,81.3906,137.9037,60,111.6146,60z"/> <path fill="#D0E8FF" d="M111.6146,52c-30.7031,0-55.6797,24.9766-55.6797,55.6797c0,6.0195,0.9531,11.9336,2.832,17.582 C59.3138,126.8984,60.8412,128,62.5638,128h98.1016c1.7227,0,3.25-1.1016,3.7969-2.7383c1.8789-5.6484,2.832-11.5625,2.832-17.582 C167.2943,76.9766,142.3177,52,111.6146,52z M157.6888,120H65.5404c-1.0664-3.9961-1.6055-8.1289-1.6055-12.3203 C63.9349,81.3906,85.3255,60,111.6146,60s47.6797,21.3906,47.6797,47.6797C159.2943,111.8711,158.7552,116.0039,157.6888,120z"/> <path fill="#D0E8FF" d="M58.4427,65.1719l-24-24c-1.5625-1.5625-4.0938-1.5625-5.6562,0s-1.5625,4.0938,0,5.6562l24,24 C53.5677,71.6094,54.5912,72,55.6146,72s2.0469-0.3906,2.8281-1.1719C60.0052,69.2656,60.0052,66.7344,58.4427,65.1719z"/> <path fill="#D0E8FF" d="M194.4427,41.1719c-1.5625-1.5625-4.0938-1.5625-5.6562,0l-24,24c-1.5625,1.5625-1.5625,4.0938,0,5.6562 C165.5677,71.6094,166.5912,72,167.6146,72s2.0469-0.3906,2.8281-1.1719l24-24C196.0052,45.2656,196.0052,42.7344,194.4427,41.1719 z"/> <path fill="#D0E8FF" d="M111.6146,44c2.2109,0,4-1.7891,4-4V4c0-2.2109-1.7891-4-4-4s-4,1.7891-4,4v36 C107.6146,42.2109,109.4037,44,111.6146,44z"/> <path fill="#D0E8FF" d="M108.7865,145.1719l-25.457,25.457l5.6562,5.6562l18.6289-18.6289v50.4961h8v-50.4961l18.6289,18.6289 l5.6562-5.6562l-25.457-25.457C112.8802,143.6094,110.349,143.6094,108.7865,145.1719z"/> </g> <path fill="#FF5D5D" d="M128,22.8317c-1.0234,0-2.0479-0.3906-2.8281-1.1719c-1.5625-1.5615-1.5625-4.0947,0-5.6562l14.1426-14.1416 c1.5625-1.5625,4.0957-1.5625,5.6562,0c1.5625,1.5615,1.5625,4.0947,0,5.6562l-14.1426,14.1416 C130.0469,22.441,129.0234,22.8317,128,22.8317z"/> <path fill="#FF5D5D" d="M142.1426,22.8317c-1.0234,0-2.0469-0.3906-2.8281-1.1719L125.1719,7.5182 c-1.5625-1.5615-1.5625-4.0947,0-5.6562c1.5605-1.5625,4.0938-1.5625,5.6562,0l14.1426,14.1416 c1.5625,1.5615,1.5625,4.0947,0,5.6562C144.1904,22.441,143.166,22.8317,142.1426,22.8317z"/> <path fill="#00D40B" d="M14,202.8317c-7.7197,0-14-6.2803-14-14s6.2803-14,14-14s14,6.2803,14,14S21.7197,202.8317,14,202.8317z M14,182.8317c-3.3086,0-6,2.6914-6,6s2.6914,6,6,6s6-2.6914,6-6S17.3086,182.8317,14,182.8317z"/> <path fill="#FFC504" d="M163.3135,161.4596c-1.0234,0-2.0479-0.3906-2.8281-1.1719l-11.3135-11.3135 c-1.5625-1.5615-1.5625-4.0947,0-5.6562l11.3135-11.3145c0.75-0.75,1.7676-1.1719,2.8281-1.1719s2.0781,0.4219,2.8281,1.1719 l11.3135,11.3145c1.5625,1.5615,1.5625,4.0947,0,5.6562l-11.3135,11.3135C165.3613,161.069,164.3369,161.4596,163.3135,161.4596z M157.6562,146.1461l5.6572,5.6562l5.6572-5.6562l-5.6572-5.6572L157.6562,146.1461z"/> </g>
</svg>