<!DOCTYPE svg PUBLIC "-//W3C//DTD SVG 1.1//EN" "http://www.w3.org/Graphics/SVG/1.1/DTD/svg11.dtd">
<!-- Uploaded to: SVG Repo, www.svgrepo.com, Transformed by: SVG Repo Mixer Tools -->
<svg xmlns="http://www.w3.org/2000/svg" xmlns:xlink="http://www.w3.org/1999/xlink" version="1.1" id="sunset" viewBox="0 0 188.0001 206.6289" enable-background="new 0 0 188.0001 206.6289" xml:space="preserve" width="800px" height="800px" fill="#000000">
<g id="SVGRepo_bgCarrier" stroke-width="0"/>
<g id="SVGRepo_tracerCarrier" stroke-linecap="round" stroke-linejoin="round"/>
<g id="SVGRepo_iconCarrier"> <g> <path fill="#1C71DA" d="M103.6147,60c-26.291,0-47.6797,21.3906-47.6797,47.6797c0,4.1875,0.5391,8.3203,1.6055,12.3203h92.1484 c1.0664-4,1.6055-8.1328,1.6055-12.3203C151.2944,81.3906,129.9057,60,103.6147,60z"/> <path fill="#D0E8FF" d="M103.6147,52C72.9136,52,47.935,76.9766,47.935,107.6797c0,6.0117,0.9531,11.9258,2.834,17.582 C51.312,126.8984,52.8413,128,54.5639,128h98.1016c1.7227,0,3.252-1.1016,3.7949-2.7383c1.8809-5.6562,2.834-11.5703,2.834-17.582 C159.2944,76.9766,134.3159,52,103.6147,52z M149.6889,120H57.5405c-1.0664-4-1.6055-8.1328-1.6055-12.3203 C55.935,81.3906,77.3237,60,103.6147,60s47.6797,21.3906,47.6797,47.6797C151.2944,111.8672,150.7554,116,149.6889,120z"/> <path fill="#D0E8FF" d="M50.4428,65.1719l-24-24c-1.5625-1.5625-4.0938-1.5625-5.6562,0s-1.5625,4.0938,0,5.6562l24,24 C45.5678,71.6094,46.5913,72,47.6147,72s2.0469-0.3906,2.8281-1.1719C52.0053,69.2656,52.0053,66.7344,50.4428,65.1719z"/> <path fill="#D0E8FF" d="M186.4429,41.1719c-1.5625-1.5625-4.0938-1.5625-5.6562,0l-24,24c-1.5625,1.5625-1.5625,4.0938,0,5.6562 C157.5679,71.6094,158.5913,72,159.6147,72s2.0469-0.3906,2.8281-1.1719l24-24C188.0054,45.2656,188.0054,42.7344,186.4429,41.1719 z"/> <path fill="#D0E8FF" d="M103.6147,44c2.209,0,4-1.7891,4-4V4c0-2.2109-1.791-4-4-4s-4,1.7891-4,4v36 C99.6147,42.2109,101.4057,44,103.6147,44z"/> <path fill="#D0E8FF" d="M107.6147,192.9724V148h-8v44.9724l-18.627-18.6287L75.3315,180l25.4551,25.457 c0.75,0.75,1.7676,1.1719,2.8281,1.1719s2.0781-0.4219,2.8281-1.1719L131.8979,180l-5.6563-5.6562L107.6147,192.9724z"/> </g> <path fill="#FF5D5D" d="M164.0001,26.8317c-1.0239,0-2.0474-0.3906-2.8286-1.1719c-1.562-1.5615-1.562-4.0947,0-5.6562 l14.1421-14.1416c1.5635-1.5625,4.0957-1.5615,5.6572,0c1.562,1.5615,1.562,4.0947,0,5.6562l-14.1421,14.1416 C166.0475,26.441,165.0236,26.8317,164.0001,26.8317z"/> <path fill="#FF5D5D" d="M178.1422,26.8317c-1.0239,0-2.0474-0.3906-2.8286-1.1719l-14.1421-14.1416 c-1.562-1.5615-1.562-4.0947,0-5.6562c1.5625-1.5625,4.0947-1.5625,5.6572,0l14.1421,14.1416c1.562,1.5615,1.562,4.0947,0,5.6562 C180.1896,26.441,179.1661,26.8317,178.1422,26.8317z"/> <path fill="#00D40B" d="M174.0001,170.8317c-7.7197,0-14-6.2803-14-14s6.2803-14,14-14s14,6.2803,14,14 S181.7198,170.8317,174.0001,170.8317z M174.0001,150.8317c-3.3086,0-6,2.6914-6,6s2.6914,6,6,6s6-2.6914,6-6 S177.3087,150.8317,174.0001,150.8317z"/> <path fill="#FFC504" d="M15.3136,193.4596c-1.0239,0-2.0474-0.3906-2.8286-1.1719L1.1715,180.9742 c-1.562-1.5615-1.562-4.0947,0-5.6562l11.3135-11.3145c0.75-0.75,1.7676-1.1719,2.8286-1.1719s2.0781,0.4219,2.8286,1.1719 l11.314,11.3145c0.75,0.75,1.1714,1.7676,1.1714,2.8281s-0.4214,2.0781-1.1719,2.8281l-11.314,11.3135 C17.361,193.069,16.337,193.4596,15.3136,193.4596z M9.6569,178.1461l5.6567,5.6562l5.6572-5.6562l-5.6572-5.6572L9.6569,178.1461z"/> </g>
</svg>