<!DOCTYPE svg PUBLIC "-//W3C//DTD SVG 1.1//EN" "http://www.w3.org/Graphics/SVG/1.1/DTD/svg11.dtd">
<!-- Uploaded to: SVG Repo, www.svgrepo.com, Transformed by: SVG Repo Mixer Tools -->
<svg xmlns="http://www.w3.org/2000/svg" xmlns:xlink="http://www.w3.org/1999/xlink" version="1.1" id="sunstar" viewBox="0 0 215.8199 219.2201" enable-background="new 0 0 215.8199 219.2201" xml:space="preserve" width="800px" height="800px" fill="#000000">
<g id="SVGRepo_bgCarrier" stroke-width="0"/>
<g id="SVGRepo_tracerCarrier" stroke-linecap="round" stroke-linejoin="round"/>
<g id="SVGRepo_iconCarrier"> <g> <path fill="#1C71DA" d="M205.2068,127.2045c-0.4219-0.6016-0.6562-1.2812-0.7109-1.9688c-3.7656-8.5547-3.7656-19.2969,0-27.8555 c0.0547-0.6836,0.2891-1.3633,0.7109-1.9648c2.375-3.4023,3.1602-7.2266,2.2148-10.7695c-0.9492-3.5391-3.543-6.457-7.3047-8.2148 v-0.0039c-0.668-0.3086-1.207-0.7812-1.5977-1.3477c-7.5391-5.5234-12.9102-14.832-13.9258-24.125 c-0.2969-0.6211-0.4337-1.3242-0.3711-2.0586c0.3555-4.1367-0.875-7.8398-3.4648-10.4336 c-2.5977-2.5898-6.293-3.8047-10.4297-3.4648h-0.0039c-0.75,0.0742-1.4414-0.0742-2.0586-0.3711 c-9.2969-1.0156-18.6016-6.3867-24.1289-13.9297c-0.5625-0.3867-1.0352-0.9297-1.3438-1.5938h-0.0039 c-1.7578-3.7617-4.6758-6.3555-8.2148-7.3047c-3.5391-0.9453-7.3477-0.1602-10.7461,2.1992l-0.0234,0.0156 c-0.6016,0.4258-1.2812,0.6562-1.9688,0.7109c-8.5547,3.7656-19.293,3.7656-27.8555,0c-0.6836-0.0547-1.3633-0.2891-1.9648-0.7109 c-3.4062-2.375-7.2188-3.1562-10.7695-2.2148c-3.5391,0.9492-6.457,3.543-8.2148,7.3047h-0.0039 c-0.3086,0.668-0.7812,1.207-1.3477,1.5938c-5.5234,7.543-14.832,12.9141-24.125,13.9297 c-0.6172,0.2969-1.3164,0.4453-2.0586,0.3711c-4.125-0.3398-7.836,0.875-10.4336,3.4648 c-2.5898,2.5938-3.8203,6.2969-3.4648,10.4297v0.0039c0.0624,0.7344-0.0742,1.4375-0.3711,2.0586 c-1.0156,9.2969-6.3867,18.6016-13.9297,24.1289c-0.3867,0.5625-0.9297,1.0352-1.5938,1.3438v0.0039 c-3.7617,1.7578-6.3555,4.6758-7.3047,8.2148c-0.9453,3.5352-0.1641,7.3477,2.1992,10.7461l0.0156,0.0234 c0.4219,0.6016,0.6562,1.2812,0.7109,1.9688c3.7656,8.5547,3.7656,19.2969,0,27.8555c-0.0547,0.6836-0.2891,1.3633-0.7109,1.9648 c-2.375,3.4062-3.1641,7.2305-2.2148,10.7695c0.9492,3.543,3.543,6.4609,7.3008,8.2148l0.0039,0.0039 c0.668,0.3086,1.207,0.7812,1.5977,1.3477c7.5352,5.5234,12.9062,14.8281,13.9258,24.1211 c0.2969,0.6211,0.4335,1.3281,0.3711,2.0625c-0.3555,4.1367,0.875,7.8398,3.4648,10.4336 c2.5976,2.5898,6.293,3.8125,10.4297,3.4648h0.0039c0.7422-0.0703,1.4414,0.0742,2.0586,0.3711 c9.2969,1.0156,18.6016,6.3867,24.1289,13.9297c0.5625,0.3867,1.0352,0.9297,1.3438,1.5938h0.0039 c1.7578,3.7617,4.6758,6.3555,8.2148,7.3047c3.5391,0.9453,7.3477,0.1641,10.7461-2.1992l0.0234-0.0156 c0.6016-0.4258,1.2812-0.6562,1.9688-0.7109c8.5547-3.7656,19.293-3.7656,27.8555,0c0.6836,0.0547,1.3633,0.2891,1.9648,0.7109 c3.4062,2.375,7.2422,3.1602,10.7695,2.2148c3.543-0.9492,6.4609-3.543,8.2148-7.3008l0.0039-0.0039 c0.3086-0.668,0.7812-1.207,1.3477-1.5938c5.5234-7.543,14.832-12.9141,24.125-13.9297c0.6172-0.2969,1.3086-0.4414,2.0586-0.3711 c4.1211,0.3477,7.8359-0.875,10.4336-3.4648c2.5898-2.5938,3.8203-6.2969,3.4648-10.4297v-0.0039 c-0.0626-0.7344,0.0742-1.4375,0.3711-2.0586c1.0156-9.2969,6.3867-18.6016,13.9297-24.1289 c0.3867-0.5625,0.9297-1.0352,1.5938-1.3438v-0.0039c3.7617-1.7578,6.3555-4.6758,7.3047-8.2148 c0.9453-3.5352,0.1641-7.3477-2.1992-10.7461L205.2068,127.2045z M107.91,187.3099c-41.9062,0-76-34.0938-76-76s34.0938-76,76-76 s76,34.0938,76,76S149.8162,187.3099,107.91,187.3099z"/> <path fill="#5CB0FF" d="M107.91,43.3099c-37.4961,0-68,30.5039-68,68s30.5039,68,68,68s68-30.5039,68-68 S145.4061,43.3099,107.91,43.3099z"/> <path fill="#D0E8FF" d="M107.91,35.3099c-41.9062,0-76,34.0938-76,76s34.0938,76,76,76s76-34.0938,76-76 S149.8162,35.3099,107.91,35.3099z M107.91,179.3099c-37.4961,0-68-30.5039-68-68s30.5039-68,68-68s68,30.5039,68,68 S145.4061,179.3099,107.91,179.3099z"/> <path fill="#D0E8FF" d="M213.7264,125.4388c-5.3477-7.6602-5.3477-20.5977,0-28.2539V97.181 c0.4766-0.6758,0.7109-1.4492,0.7227-2.2148c1.5391-4.0312,1.7969-8.2891,0.6992-12.3906 c-1.1016-4.1016-3.457-7.6641-6.8047-10.3828c-0.3945-0.6562-0.9844-1.207-1.7305-1.5547v-0.0039 c-8.457-3.9531-14.9219-15.1445-14.125-24.4453v-0.0195c0.0742-0.8281-0.1133-1.6172-0.4883-2.2891 c-0.6797-4.2578-2.5859-8.0742-5.5859-11.0742c-3.0039-3-6.8164-4.9063-11.0742-5.5898c-0.6719-0.3711-1.4219-0.5742-2.2891-0.4844 h-0.0234c-9.2852,0.8203-20.4883-5.668-24.4414-14.125h-0.0039c-0.3477-0.7461-0.8984-1.3359-1.5547-1.7305 c-2.7188-3.3477-6.2812-5.7031-10.3828-6.8047c-4.0977-1.1016-8.3594-0.8477-12.3906,0.6992 c-0.7656,0.0156-1.5391,0.25-2.2148,0.7227c-7.6641,5.3516-20.6055,5.3438-28.2539,0H93.781 c-0.6758-0.4766-1.4492-0.7109-2.2148-0.7227c-4.0352-1.5469-8.293-1.8008-12.3906-0.6992 c-4.1016,1.1016-7.6641,3.457-10.3828,6.8047c-0.6562,0.3945-1.207,0.9844-1.5547,1.7305h-0.0039 c-3.9531,8.4609-15.1914,14.9727-24.4609,14.125h-0.0039c-0.8477-0.0781-1.6133,0.1094-2.2891,0.4883 c-4.2578,0.6797-8.0742,2.5859-11.0742,5.5859c-3,3.0039-4.9062,6.8203-5.5898,11.0742c-0.3711,0.6758-0.5547,1.4609-0.4844,2.2891 v0.0273c0.793,9.3008-5.668,20.4883-14.125,24.4375v0.0039c-0.7461,0.3477-1.3359,0.8984-1.7305,1.5547 c-3.3477,2.7188-5.7031,6.2812-6.8047,10.3828c-1.0977,4.1016-0.8398,8.3633,0.6992,12.3906 c0.0156,0.7656,0.25,1.5391,0.7227,2.2148c5.3477,7.6602,5.3477,20.5977,0,28.2539v0.0039 c-0.4766,0.6758-0.7109,1.4492-0.7227,2.2148c-1.5391,4.0312-1.7969,8.293-0.6992,12.3945 c1.1016,4.1016,3.457,7.6641,6.8047,10.3828c0.3984,0.6523,0.9844,1.2031,1.7305,1.5508v0.0039 c8.457,3.9531,14.9219,15.1484,14.125,24.4492v0.0156c0,0.0039,0,0.0039,0,0.0039c-0.0703,0.8242,0.1133,1.6133,0.4883,2.2852 c0.6797,4.2578,2.5859,8.0742,5.5859,11.0742c3.0039,3,6.8164,4.9062,11.0742,5.5898c0.6719,0.3711,1.4219,0.5742,2.2891,0.4844 h0.0234c9.2656-0.8242,20.4883,5.668,24.4414,14.125h0.0039c0.3477,0.7461,0.8984,1.3359,1.5547,1.7305 c2.7188,3.3477,6.2812,5.7031,10.3828,6.8047c4.0977,1.0938,8.3555,0.8398,12.3906-0.6992c0.7656-0.0156,1.5391-0.25,2.2148-0.7227 c7.6641-5.3516,20.6055-5.3438,28.2539,0h0.0039c0.6758,0.4766,1.4492,0.7109,2.2148,0.7227 c2.3789,0.9102,4.8399,1.3711,7.3008,1.3711c1.707,0,3.4141-0.2227,5.0938-0.6719c4.1016-1.1016,7.6641-3.457,10.3828-6.8086 c0.6523-0.3945,1.2031-0.9805,1.5508-1.7266h0.0039c3.9531-8.457,15.082-14.9531,24.4492-14.125h0.0156 c0.8438,0.0898,1.6133-0.1094,2.2891-0.4883c4.2578-0.6797,8.0742-2.5859,11.0742-5.5859c3-3.0039,4.9062-6.8203,5.5898-11.0742 c0.3711-0.6758,0.5547-1.4609,0.4844-2.2891v-0.0273c-0.793-9.3008,5.668-20.4883,14.125-24.4375v-0.0039 c0.7461-0.3477,1.3359-0.8984,1.7305-1.5547c3.3477-2.7188,5.7031-6.2812,6.8047-10.3828 c1.0977-4.1016,0.8398-8.3633-0.6992-12.3906C214.4334,126.8881,214.199,126.1146,213.7264,125.4388z M207.4217,137.974 c-0.9492,3.5391-3.543,6.457-7.3047,8.2148v0.0039c-0.6641,0.3086-1.207,0.7812-1.5938,1.3438 c-7.543,5.5273-12.9141,14.832-13.9297,24.1289c-0.2969,0.6211-0.4337,1.3242-0.3711,2.0586v0.0039 c0.3555,4.1328-0.875,7.8359-3.4648,10.4297c-2.5977,2.5898-6.3125,3.8125-10.4336,3.4648 c-0.75-0.0703-1.4414,0.0742-2.0586,0.3711c-9.293,1.0156-18.6016,6.3867-24.125,13.9297 c-0.5664,0.3867-1.0391,0.9258-1.3477,1.5938l-0.0039,0.0039c-1.7539,3.7578-4.6719,6.3516-8.2148,7.3008 c-3.5273,0.9453-7.3633,0.1602-10.7695-2.2148c-0.6016-0.4219-1.2812-0.6562-1.9648-0.7109 c-8.5625-3.7656-19.3008-3.7656-27.8555,0c-0.6875,0.0547-1.3672,0.2852-1.9688,0.7109l-0.0234,0.0156 c-3.3984,2.3633-7.207,3.1445-10.7461,2.1992c-3.5391-0.9492-6.457-3.543-8.2148-7.3047h-0.0039 c-0.3086-0.6641-0.7812-1.207-1.3438-1.5938c-5.5273-7.543-14.832-12.9141-24.1289-13.9297 c-0.6172-0.2969-1.3164-0.4414-2.0586-0.3711H45.492c-4.1367,0.3477-7.8321-0.875-10.4297-3.4648 c-2.5898-2.5938-3.8203-6.2969-3.4648-10.4336c0.0624-0.7344-0.0742-1.4414-0.3711-2.0625 c-1.0195-9.293-6.3906-18.5977-13.9258-24.1211c-0.3906-0.5664-0.9297-1.0391-1.5977-1.3477l-0.0039-0.0039 c-3.7578-1.7539-6.3516-4.6719-7.3008-8.2148c-0.9492-3.5391-0.1602-7.3633,2.2148-10.7695 c0.4219-0.6016,0.6562-1.2812,0.7109-1.9648c3.7656-8.5586,3.7656-19.3008,0-27.8555c-0.0547-0.6875-0.2891-1.3672-0.7109-1.9688 l-0.0156-0.0234c-2.3633-3.3984-3.1445-7.2109-2.1992-10.7461c0.9492-3.5391,3.543-6.457,7.3047-8.2148v-0.0039 c0.6641-0.3086,1.207-0.7812,1.5938-1.3438c7.543-5.5273,12.9141-14.832,13.9297-24.1289 c0.2969-0.6211,0.4335-1.3242,0.3711-2.0586V48.892c-0.3555-4.1328,0.875-7.8359,3.4648-10.4297 c2.5976-2.5898,6.3086-3.8047,10.4336-3.4648c0.7422,0.0742,1.4414-0.0742,2.0586-0.3711 c9.293-1.0156,18.6016-6.3867,24.125-13.9297c0.5664-0.3867,1.0391-0.9258,1.3477-1.5938h0.0039 c1.7578-3.7617,4.6758-6.3555,8.2148-7.3047c3.5508-0.9414,7.3633-0.1602,10.7695,2.2148 c0.6016,0.4219,1.2812,0.6562,1.9648,0.7109c8.5625,3.7656,19.3008,3.7656,27.8555,0c0.6875-0.0547,1.3672-0.2852,1.9688-0.7109 l0.0234-0.0156c3.3984-2.3594,7.207-3.1445,10.7461-2.1992c3.5391,0.9492,6.457,3.543,8.2148,7.3047h0.0039 c0.3086,0.6641,0.7812,1.207,1.3438,1.5938c5.5273,7.543,14.832,12.9141,24.1289,13.9297 c0.6172,0.2969,1.3086,0.4453,2.0586,0.3711h0.0039c4.1367-0.3398,7.832,0.875,10.4297,3.4648 c2.5898,2.5938,3.8203,6.2969,3.4648,10.4336c-0.0626,0.7344,0.0742,1.4375,0.3711,2.0586 c1.0156,9.293,6.3867,18.6016,13.9258,24.125c0.3906,0.5664,0.9297,1.0391,1.5977,1.3477v0.0039 c3.7617,1.7578,6.3555,4.6758,7.3047,8.2148c0.9453,3.543,0.1602,7.3672-2.2148,10.7695 c-0.4219,0.6016-0.6562,1.2812-0.7109,1.9648c-3.7656,8.5586-3.7656,19.3008,0,27.8555c0.0547,0.6875,0.2891,1.3672,0.7109,1.9688 l0.0156,0.0234C207.5857,130.6263,208.367,134.4388,207.4217,137.974z"/> </g> <path fill="#FF5D5D" d="M192.2953,22.1416c-1.0234,0-2.0479-0.3906-2.8281-1.1719c-1.5625-1.5615-1.5625-4.0947,0-5.6562 l14.1426-14.1416c1.5625-1.5625,4.0957-1.5625,5.6562,0c1.5625,1.5615,1.5625,4.0947,0,5.6562l-14.1426,14.1416 C194.3422,21.751,193.3188,22.1416,192.2953,22.1416z"/> <path fill="#FF5D5D" d="M206.4379,22.1416c-1.0234,0-2.0469-0.3906-2.8281-1.1719L189.4672,6.8281 c-1.5625-1.5615-1.5625-4.0947,0-5.6562c1.5605-1.5625,4.0938-1.5625,5.6562,0l14.1426,14.1416 c1.5625,1.5615,1.5625,4.0947,0,5.6562C208.4858,21.751,207.4614,22.1416,206.4379,22.1416z"/> <path fill="#00D40B" d="M194.2953,218.1416c-7.7197,0-14-6.2803-14-14s6.2803-14,14-14s14,6.2803,14,14 S202.0151,218.1416,194.2953,218.1416z M194.2953,198.1416c-3.3086,0-6,2.6914-6,6s2.6914,6,6,6s6-2.6914,6-6 S197.6039,198.1416,194.2953,198.1416z"/> <path fill="#FFC504" d="M83.6088,116.7695c-1.0234,0-2.0479-0.3906-2.8281-1.1719l-11.3135-11.3135 c-1.5625-1.5615-1.5625-4.0947,0-5.6562l11.3135-11.3145c0.75-0.75,1.7676-1.1719,2.8281-1.1719s2.0781,0.4219,2.8281,1.1719 l11.3135,11.3145c1.5625,1.5615,1.5625,4.0947,0,5.6562L86.437,115.5977C85.6567,116.3789,84.6323,116.7695,83.6088,116.7695z M77.9516,101.4561l5.6572,5.6562l5.6572-5.6562l-5.6572-5.6572L77.9516,101.4561z"/> </g>
</svg>