<!DOCTYPE svg PUBLIC "-//W3C//DTD SVG 1.1//EN" "http://www.w3.org/Graphics/SVG/1.1/DTD/svg11.dtd">
<!-- Uploaded to: SVG Repo, www.svgrepo.com, Transformed by: SVG Repo Mixer Tools -->
<svg xmlns="http://www.w3.org/2000/svg" xmlns:xlink="http://www.w3.org/1999/xlink" version="1.1" id="windbidirection" viewBox="0 0 203.6147 218.1418" enable-background="new 0 0 203.6147 218.1418" xml:space="preserve" width="800px" height="800px" fill="#000000">
<g id="SVGRepo_bgCarrier" stroke-width="0"/>
<g id="SVGRepo_tracerCarrier" stroke-linecap="round" stroke-linejoin="round"/>
<g id="SVGRepo_iconCarrier"> <g> <path fill="#1C71DA" d="M83.9761,59.3097c1.9133,11.3325,11.7698,20,23.6387,20s21.7253-8.6675,23.6387-20H83.9761z"/> <path fill="#1C71DA" d="M107.6147,31.3097c-11.8689,0-21.7253,8.6675-23.6387,20h47.2774 C129.3401,39.9772,119.4836,31.3097,107.6147,31.3097z"/> <path fill="#D0E8FF" d="M195.6147,143.3097c2.209,0,4-1.791,4-4s-1.791-4-4-4h-168c-0.3293,0-0.6223,0.1123-0.9287,0.1875 c-0.3064-0.0752-0.5994-0.1875-0.9287-0.1875c-5.5918,0-10.1426-5.3828-10.1426-12s4.5508-12,10.1426-12c2.209,0,4-1.791,4-4 s-1.791-4-4-4c-10.0039,0-18.1426,8.9727-18.1426,20s8.1387,20,18.1426,20c0.3293,0,0.6223-0.1123,0.9287-0.1875 c0.3064,0.0752,0.5994,0.1875,0.9287,0.1875H195.6147z"/> <path fill="#D0E8FF" d="M107.6147,87.3097c17.6445,0,32-14.3555,32-32s-14.3555-32-32-32c-16.2871,0-29.7437,12.2402-31.7222,28 h-0.2778v8h0.2778C77.8711,75.0695,91.3276,87.3097,107.6147,87.3097z M107.6147,79.3097c-11.8689,0-21.7253-8.6675-23.6387-20 h47.2774C129.3401,70.6422,119.4836,79.3097,107.6147,79.3097z M107.6147,31.3097c11.8689,0,21.7253,8.6675,23.6387,20H83.9761 C85.8894,39.9772,95.7458,31.3097,107.6147,31.3097z"/> <path fill="#D0E8FF" d="M171.6147,155.3097c0-2.209-1.791-4-4-4h-120c-2.209,0-4,1.791-4,4s1.791,4,4,4h120 C169.8237,159.3097,171.6147,157.5187,171.6147,155.3097z"/> <path fill="#D0E8FF" d="M47.6147,127.3097h120c2.209,0,4-1.791,4-4s-1.791-4-4-4h-120c-2.209,0-4,1.791-4,4 S45.4057,127.3097,47.6147,127.3097z"/> <path fill="#D0E8FF" d="M185.4722,167.3097c-0.3293,0-0.6223,0.1123-0.9287,0.1875c-0.3064-0.0752-0.5994-0.1875-0.9287-0.1875 h-114c-2.209,0-4,1.791-4,4s1.791,4,4,4h114c0.3293,0,0.6223-0.1123,0.9287-0.1875c0.3064,0.0752,0.5994,0.1875,0.9287,0.1875 c5.5918,0,10.1426,5.3828,10.1426,12s-4.5508,12-10.1426,12c-2.209,0-4,1.791-4,4s1.791,4,4,4c10.0039,0,18.1426-8.9727,18.1426-20 S195.4761,167.3097,185.4722,167.3097z"/> </g> <path fill="#FF5D5D" d="M132.0001,22.1418c-1.0239,0-2.0474-0.3906-2.8286-1.1714c-1.562-1.5625-1.562-4.0947,0-5.6572 l14.1421-14.1421c1.5625-1.5615,4.0947-1.5615,5.6572,0c1.562,1.5625,1.562,4.0947,0,5.6572l-14.1421,14.1421 C134.0475,21.7512,133.024,22.1418,132.0001,22.1418z"/> <path fill="#FF5D5D" d="M146.1422,22.1418c-1.0239,0-2.0474-0.3906-2.8286-1.1714L129.1715,6.8284 c-1.562-1.5625-1.562-4.0947,0-5.6572c1.5625-1.5615,4.0947-1.5615,5.6572,0l14.1421,14.1421c1.562,1.5625,1.562,4.0947,0,5.6572 C148.1896,21.7512,147.1661,22.1418,146.1422,22.1418z"/> <path fill="#00D40B" d="M150.0001,218.1418c-7.7197,0-14-6.2803-14-14s6.2803-14,14-14s14,6.2803,14,14 S157.7198,218.1418,150.0001,218.1418z M150.0001,198.1418c-3.3086,0-6,2.6914-6,6s2.6914,6,6,6s6-2.6914,6-6 S153.3087,198.1418,150.0001,198.1418z"/> <path fill="#FFC504" d="M15.3136,176.7693L15.3136,176.7693c-1.061,0-2.0781-0.4214-2.8286-1.1719l-11.3135-11.314 c-1.562-1.562-1.562-4.0942,0-5.6567l11.3135-11.3135c1.5625-1.5615,4.0952-1.5615,5.6567,0l11.314,11.3135 c0.7505,0.7505,1.1719,1.7676,1.1719,2.8286s-0.4214,2.0781-1.1714,2.8286l-11.314,11.314 C17.3917,176.3479,16.3746,176.7693,15.3136,176.7693z M9.6569,161.4553l5.6567,5.6572l5.6572-5.6572l-5.6572-5.6567 L9.6569,161.4553z"/> </g>
</svg>